<svg width="18" height="20" viewBox="0 0 18 20" fill="none" xmlns="http://www.w3.org/2000/svg">
<path d="M12.4791 6C12.4791 7.06087 12.1125 8.07828 11.4601 8.82843C10.8076 9.57857 9.92271 10 9 10C8.07729 10 7.19237 9.57857 6.53992 8.82843C5.88746 8.07828 5.52092 7.06087 5.52092 6M1.72282 5.40138L1.11398 13.8014C0.983189 15.6059 0.917792 16.5082 1.1831 17.2042C1.4162 17.8157 1.82007 18.3204 2.33076 18.6382C2.91202 19 3.6995 19 5.27446 19H12.7255C14.3005 19 15.088 19 15.6692 18.6382C16.1799 18.3204 16.5838 17.8157 16.8169 17.2042C17.0822 16.5082 17.0168 15.6059 16.886 13.8014L16.2772 5.40138C16.1646 3.84875 16.1084 3.07243 15.8093 2.48486C15.546 1.96744 15.1538 1.5526 14.6835 1.29385C14.1494 1 13.4718 1 12.1167 1L5.8833 1C4.52818 1 3.85063 1 3.3165 1.29384C2.84615 1.5526 2.45402 1.96744 2.19068 2.48486C1.89163 3.07243 1.83536 3.84875 1.72282 5.40138Z" stroke="#393427" stroke-width="1.5" stroke-linecap="round" stroke-linejoin="round"/>
</svg>
