<svg width="22" height="22" viewBox="0 0 22 22" fill="none" xmlns="http://www.w3.org/2000/svg">
<path fill-rule="evenodd" clip-rule="evenodd" d="M11 0.25C16.9371 0.25 21.75 5.06294 21.75 11C21.75 16.9371 16.9371 21.75 11 21.75C5.06294 21.75 0.25 16.9371 0.25 11C0.25 5.06294 5.06294 0.25 11 0.25ZM15.75 11C15.75 11.4142 15.4142 11.75 15 11.75L11.75 11.75L11.75 15C11.75 15.4142 11.4142 15.75 11 15.75C10.5858 15.75 10.25 15.4142 10.25 15L10.25 11.75L7 11.75C6.58579 11.75 6.25 11.4142 6.25 11C6.25 10.5858 6.58579 10.25 7 10.25L10.25 10.25L10.25 7C10.25 6.58579 10.5858 6.25 11 6.25C11.4142 6.25 11.75 6.58579 11.75 7L11.75 10.25L15 10.25C15.4142 10.25 15.75 10.5858 15.75 11Z" fill="#474767"/>
</svg>
